<svg width="169" height="36" viewBox="0 0 169 36" xmlns="http://www.w3.org/2000/svg">
<path d="M41.5411 20.1116C41.5411 24.7415 44.8558 27.9283 49.4246 27.9283C53.9935 27.9283 57.3082 24.7415 57.3082 20.1116C57.3082 15.4817 53.9935 12.2948 49.4246 12.2948C44.8558 12.2948 41.5411 15.4817 41.5411 20.1116ZM45.1843 20.1116C45.1843 17.4058 46.9163 15.5719 49.4246 15.5719C51.933 15.5719 53.665 17.4058 53.665 20.1116C53.665 22.8174 51.933 24.6513 49.4246 24.6513C46.9163 24.6513 45.1843 22.8174 45.1843 20.1116Z" fill="white"/>
<path d="M62.9009 27.5675H66.4843L72.6359 12.7157H68.8733L66.1857 19.5404C65.5586 21.1638 65.0211 22.7272 64.8121 23.6592C64.6329 22.8474 64.1253 21.3142 63.4982 19.5404L60.9301 12.7157H57.048L62.9009 27.5675Z" fill="white"/>
<path d="M79.854 27.9584C83.7062 27.9584 86.3938 26.0042 87.0209 22.7572H83.6465C83.2284 24.1703 81.9145 24.9519 79.9138 24.9519C77.4949 24.9519 76.1213 23.6291 75.8525 21.0135L86.9611 20.9834V19.8711C86.9611 15.2412 84.1541 12.2648 79.7346 12.2648C75.4046 12.2648 72.3886 15.4817 72.3886 20.1416C72.3886 24.7415 75.4643 27.9584 79.854 27.9584ZM79.7644 15.2712C81.9444 15.2712 83.3479 16.6241 83.3479 18.6685H75.9421C76.3005 16.4437 77.6144 15.2712 79.7644 15.2712Z" fill="white"/>
<path d="M98.3875 12.6556C97.7902 12.5053 97.2826 12.4452 96.7749 12.4452C94.804 12.4452 93.4005 13.4373 92.7734 14.9104L92.5644 12.7458H89.1303V27.5675H92.7734V20.3521C92.7734 17.4659 94.4158 16.0529 97.0437 16.0529H98.3875V12.6556Z" fill="white"/>
<path d="M98.7451 20.1116C98.7451 24.8317 101.672 27.9584 106.151 27.9584C110.003 27.9584 112.87 25.5833 113.318 22.1259H109.645C109.256 23.7494 107.972 24.6513 106.151 24.6513C103.822 24.6513 102.388 22.9076 102.388 20.1116C102.388 17.3156 103.941 15.5418 106.27 15.5418C108.002 15.5418 109.227 16.4137 109.645 18.0973H113.288C112.9 14.5196 110.152 12.2648 106.121 12.2648C101.761 12.2648 98.7451 15.5117 98.7451 20.1116Z" fill="white"/>
<path d="M118.956 27.5675V6.08984H115.342V27.5675H118.956Z" fill="white"/>
<path d="M121.165 20.1116C121.165 24.7415 124.479 27.9283 129.048 27.9283C133.617 27.9283 136.932 24.7415 136.932 20.1116C136.932 15.4817 133.617 12.2948 129.048 12.2948C124.479 12.2948 121.165 15.4817 121.165 20.1116ZM124.808 20.1116C124.808 17.4058 126.54 15.5719 129.048 15.5719C131.557 15.5719 133.289 17.4058 133.289 20.1116C133.289 22.8174 131.557 24.6513 129.048 24.6513C126.54 24.6513 124.808 22.8174 124.808 20.1116Z" fill="white"/>
<path d="M138.207 20.1116C138.207 24.8317 141.133 27.9584 145.613 27.9584C149.465 27.9584 152.332 25.5833 152.78 22.1259H149.107C148.718 23.7494 147.434 24.6513 145.613 24.6513C143.283 24.6513 141.85 22.9076 141.85 20.1116C141.85 17.3156 143.403 15.5418 145.732 15.5418C147.464 15.5418 148.688 16.4137 149.107 18.0973H152.75C152.361 14.5196 149.614 12.2648 145.583 12.2648C141.223 12.2648 138.207 15.5117 138.207 20.1116Z" fill="white"/>
<path d="M158.418 27.5675V23.569L160.568 21.3142L164.42 27.5675H168.6L163.106 18.6084L168.72 12.7157H164.151L158.418 18.9391V6.08984H154.804V27.5675H158.418Z" fill="white"/>
<path fill-rule="evenodd" clip-rule="evenodd" d="M18.6422 0.662109V4.8212C26.2247 5.8081 32.0803 12.2859 32.0803 20.1316C32.0803 28.6596 25.1614 35.573 16.6265 35.573C13.8221 35.573 11.1916 34.8261 8.92388 33.5211L11.9139 30.5335C13.3753 31.1957 14.9736 31.5448 16.6265 31.5448C19.6778 31.5448 22.5468 30.3581 24.7036 28.2022C26.8605 26.0463 28.0489 23.1804 28.0489 20.1316C28.0489 17.0828 26.8613 14.2169 24.7036 12.061C23.0289 10.3876 20.9258 9.29835 18.6422 8.89469V12.7466H14.6107V0.662109H18.6422ZM8.52483 22.5267L11.3754 25.3749L2.85057 33.8928L0 31.0446L3.22348 27.8237C1.91914 25.5587 1.17248 22.932 1.17248 20.1316C1.17248 13.7478 5.05023 8.26944 10.5792 5.91799V10.4447C9.85185 10.8995 9.1707 11.4399 8.54919 12.061C6.39236 14.2169 5.20393 17.0827 5.20393 20.1316C5.20393 21.7814 5.55248 23.3768 6.21347 24.8361L8.52483 22.5267Z" fill="white"/>
</svg>